<svg width="57" height="56" viewBox="0 0 57 56" fill="none" xmlns="http://www.w3.org/2000/svg">
    <path d="M12.0871 8.44247V6.5332L8.1541 6.5332V8.44247L12.0871 8.44247ZM8.1541 25.6143V8.44247H6.18759V25.6143H8.1541ZM6.18759 27.5235V25.6143H4.22108V27.5235H6.18759ZM4.22108 29.4212V27.5235H0.300049V29.4212H4.22108ZM6.18759 31.3304V29.4212H4.22108V31.3304H6.18759ZM8.1541 48.4906V31.3304H6.18759V48.4906H8.1541ZM12.0871 50.3999V48.4906H8.1541V50.3999H12.0871Z" fill="black"/>
    <path d="M28.7977 40.8652V38.9675H26.8312V23.705H28.7977V21.7957H26.8312V17.9772H24.8647V19.8865H22.8981V21.7957H20.9436V23.705H22.8981V38.9675H20.9436V40.8652H28.7977ZM36.6517 23.705V19.8865H28.7977V21.7957H32.7307V23.705H36.6517Z" fill="black"/>
    <path d="M48.434 8.44247V6.5332L44.513 6.5332V8.44247H48.434ZM50.4005 25.6143V8.44247H48.434V25.6143H50.4005ZM52.367 27.5235V25.6143H50.4005V27.5235H52.367ZM56.3 29.4212V27.5235H52.367V29.4212H56.3ZM52.367 31.3304V29.4212H50.4005V31.3304H52.367ZM50.4005 48.4906V31.3304H48.434V48.4906H50.4005ZM48.434 50.3999V48.4906H44.513V50.3999H48.434Z" fill="black"/>
</svg>
