<?xml version="1.0" standalone="no"?>
<!DOCTYPE svg PUBLIC "-//W3C//DTD SVG 20010904//EN"
 "http://www.w3.org/TR/2001/REC-SVG-20010904/DTD/svg10.dtd">
<svg version="1.0" xmlns="http://www.w3.org/2000/svg"
 width="711.000000pt" height="711.000000pt" viewBox="0 0 711.000000 711.000000"
 preserveAspectRatio="xMidYMid meet">
<metadata>
Created by potrace 1.14, written by Peter Selinger 2001-2017
</metadata>
<g transform="translate(0.000000,711.000000) scale(0.100000,-0.100000)"
fill="#000000" stroke="none">
<path d="M2415 6351 c-30 -86 -30 -86 -133 -122 -35 -12 -59 -25 -55 -29 4 -4
37 -17 73 -30 36 -13 71 -28 77 -34 7 -6 26 -47 42 -90 l28 -79 32 85 33 85
56 22 c127 50 124 43 31 76 l-83 30 -31 77 c-17 42 -33 80 -36 83 -4 3 -19
-30 -34 -74z"/>
<path d="M508 6293 c7 -3 16 -2 19 1 4 3 -2 6 -13 5 -11 0 -14 -3 -6 -6z"/>
<path d="M548 6283 c7 -3 16 -2 19 1 4 3 -2 6 -13 5 -11 0 -14 -3 -6 -6z"/>
<path d="M600 6270 c14 -5 72 -23 130 -40 456 -137 989 -356 1355 -558 50 -27
117 -64 150 -82 33 -18 84 -48 113 -67 29 -18 54 -33 57 -33 11 0 456 -295
500 -332 6 -5 46 -36 90 -69 44 -33 89 -68 100 -77 11 -9 40 -33 65 -52 25
-19 47 -37 50 -40 3 -3 34 -30 70 -60 395 -335 801 -772 1104 -1190 6 -8 -18
8 -54 36 -225 176 -485 316 -782 419 -126 44 -326 101 -385 110 -15 2 -46 9
-68 14 -22 5 -60 13 -85 17 -52 8 -64 10 -145 23 -33 5 -82 12 -110 16 -27 3
-64 7 -81 9 -17 2 -71 7 -120 11 -49 4 -100 9 -114 12 -43 7 -822 10 -885 3
l-60 -7 65 -2 c134 -5 359 -19 415 -25 17 -2 70 -7 119 -11 50 -4 98 -8 107
-10 10 -2 44 -6 76 -10 32 -3 101 -12 153 -20 52 -8 111 -16 130 -19 41 -6 53
-8 220 -42 462 -95 898 -252 1242 -448 167 -94 369 -232 457 -313 l24 -21 -40
-59 -40 -58 -59 1 c-32 0 -122 4 -199 9 -165 9 -206 11 -385 20 -74 3 -151 8
-170 10 -19 2 -100 7 -180 10 -80 4 -165 8 -190 10 -25 1 -110 6 -190 10 -80
4 -149 10 -155 13 -33 19 24 -31 72 -64 49 -33 118 -82 158 -112 12 -9 260
-184 330 -234 28 -19 164 -117 304 -218 140 -100 260 -184 267 -187 10 -3 6
-16 -14 -46 -15 -23 -30 -43 -34 -45 -5 -2 -8 -8 -8 -13 0 -6 -17 -33 -38 -62
-36 -49 -238 -346 -256 -376 -8 -13 64 -12 254 4 25 2 88 6 140 10 52 3 118 8
145 10 28 3 86 7 130 10 79 5 221 15 260 19 27 3 54 -11 81 -43 12 -14 32 -38
45 -52 13 -14 62 -68 109 -119 47 -51 96 -105 109 -119 13 -14 53 -59 90 -100
36 -41 77 -86 91 -101 42 -45 181 -198 200 -220 9 -11 57 -63 106 -116 111
-121 93 -102 199 -219 49 -55 91 -102 92 -104 12 -17 9 18 -7 100 -10 53 -20
109 -23 125 -3 16 -16 90 -30 164 -15 74 -28 146 -31 160 -3 22 -31 170 -42
223 -1 9 -15 80 -29 157 -14 77 -28 150 -31 162 -2 13 -7 39 -10 58 -3 19 -12
67 -20 105 -27 128 -27 135 -7 136 10 1 29 2 43 4 14 1 72 6 130 9 58 4 128 9
155 11 87 7 208 15 275 20 36 2 103 7 150 11 47 3 105 7 130 9 63 4 237 16
285 20 22 2 92 6 155 10 106 7 138 10 165 14 6 1 -69 36 -165 77 -96 42 -203
89 -238 105 -34 16 -64 29 -66 29 -4 0 -576 246 -651 279 -22 10 -125 55 -230
100 -104 45 -195 85 -202 89 -6 4 -18 41 -27 82 -8 41 -34 158 -56 260 -22
102 -43 199 -46 215 -2 17 -7 38 -10 47 -3 9 -7 25 -9 35 -2 10 -13 63 -25
118 -12 55 -24 111 -27 125 -2 14 -15 77 -29 140 -15 63 -28 124 -30 135 -2
11 -11 53 -20 93 l-16 72 -28 -42 c-15 -24 -115 -176 -222 -338 -106 -162
-207 -316 -223 -342 -17 -27 -32 -48 -35 -48 -3 0 -32 46 -65 103 -50 86 -180
288 -207 322 -4 6 -40 53 -79 105 -113 150 -155 200 -284 338 -165 176 -265
270 -481 452 -16 13 -78 62 -139 107 -60 46 -114 86 -120 91 -5 4 -73 49 -150
100 -77 51 -144 96 -150 100 -15 11 -219 130 -300 174 -135 74 -471 236 -629
303 -350 148 -823 311 -1174 406 -42 11 -117 31 -167 44 -87 24 -136 32 -85
15z"/>
<path d="M4033 5382 c-12 -31 -24 -68 -28 -82 -5 -21 -21 -30 -86 -55 -45 -16
-82 -32 -84 -35 -2 -3 32 -19 77 -34 56 -20 82 -35 88 -50 5 -12 19 -49 32
-83 12 -34 25 -59 29 -55 3 4 19 42 34 85 15 42 32 78 36 78 13 2 22 5 39 12
8 4 40 15 70 25 l55 19 -87 33 c-85 32 -87 34 -103 79 -9 25 -24 63 -33 83
l-17 37 -22 -57z"/>
<path d="M4735 5205 c-20 -64 -34 -95 -45 -96 -8 0 -52 -1 -97 -1 -46 0 -83
-4 -83 -9 0 -5 4 -9 9 -9 5 0 16 -6 23 -13 7 -7 37 -30 66 -51 28 -21 52 -41
52 -45 0 -4 -13 -49 -29 -99 l-29 -93 32 24 c17 13 55 41 83 61 l52 38 76 -57
c42 -32 78 -56 80 -53 2 2 -9 44 -26 93 -16 49 -29 90 -29 90 0 0 25 18 56 40
30 22 67 50 81 62 l26 22 -79 -1 c-43 0 -89 0 -101 1 -18 1 -26 16 -53 96 -17
52 -32 95 -33 95 -1 0 -15 -43 -32 -95z"/>
<path d="M4820 4395 c-15 -52 -27 -60 -89 -60 l-43 1 24 -21 c13 -11 33 -27
45 -35 22 -15 22 -15 4 -67 -18 -53 -15 -65 11 -40 7 7 26 20 41 30 28 18 28
18 70 -13 34 -25 43 -28 45 -15 2 9 -1 21 -6 28 -5 7 -12 24 -16 39 -5 24 -1
31 39 58 25 17 45 33 45 34 0 2 -21 4 -47 4 -27 0 -53 0 -60 1 -6 0 -17 24
-24 51 -7 28 -16 50 -20 50 -3 0 -12 -20 -19 -45z"/>
<path d="M1468 4333 c7 -3 16 -2 19 1 4 3 -2 6 -13 5 -11 0 -14 -3 -6 -6z"/>
<path d="M2494 3438 c-17 -45 -25 -54 -64 -71 -25 -11 -51 -20 -57 -20 -28 0
-10 -13 44 -33 55 -19 57 -22 79 -79 24 -66 20 -68 58 26 12 31 22 39 65 54
28 9 51 20 51 24 0 4 -24 15 -54 25 -51 18 -54 21 -72 72 -10 30 -21 54 -25
54 -4 0 -15 -23 -25 -52z"/>
</g>
</svg>
