<svg width="35" height="34" viewBox="0 0 35 34" fill="none"
     xmlns="http://www.w3.org/2000/svg">
    <path d="M33.5904 0.361816L18.835 11.6346L21.5788 4.99121L33.5904 0.361816Z" fill="#E17726"/>
    <path d="M0.831787 0.375L12.811 4.99187L15.4165 11.7225L0.831787 0.375ZM27.6527 24.3358L34.1741 24.4641L31.8949 32.4585L23.937 30.1963L27.6527 24.3358ZM6.73504 24.3358L10.4369 30.1963L2.49212 32.4588L0.227051 24.4641L6.73504 24.3358Z" fill="#E27625"/>
    <path d="M15.0627 10.0081L15.3294 18.896L7.354 18.5212L9.62244 14.9876L9.6514 14.9535L15.0627 10.0081ZM19.2433 9.90869L24.7372 14.9539L24.7658 14.9879L27.0342 18.5212L19.0608 18.896L19.2433 9.90869ZM10.6706 24.3615L15.0253 27.8648L9.9669 30.3863L10.6706 24.3615ZM23.7186 24.3611L24.4078 30.3863L19.3635 27.8644L23.7186 24.3611Z" fill="#E27625"/>
    <path d="M19.4747 27.5347L24.5934 30.0938L19.832 32.4304L19.8815 30.8861L19.4747 27.5347ZM14.9119 27.5357L14.5213 30.8607L14.5533 32.4286L9.78076 30.0938L14.9119 27.5357Z" fill="#D5BFB2"/>
    <path d="M13.4341 20.0562L14.7718 22.9587L10.2178 21.5813L13.4341 20.0562ZM20.9542 20.0565L24.186 21.5813L19.6171 22.9584L20.9542 20.0565Z" fill="#233447"/>
    <path d="M11.0186 24.3319L10.2825 30.5786L6.33691 24.4685L11.0186 24.3319ZM23.3699 24.3319L28.0519 24.4685L24.0915 30.5789L23.3699 24.3319ZM27.1495 18.168L23.742 21.7533L21.1153 20.514L19.8573 23.2438L19.033 18.5493L27.1495 18.168ZM7.23728 18.168L15.3551 18.5493L14.5305 23.2438L13.2725 20.5143L10.6593 21.7533L7.23728 18.168Z" fill="#CC6228"/>
    <path d="M7.00781 17.4326L10.8625 21.4713L10.9962 25.4586L7.00781 17.4326ZM27.3847 17.4253L23.3892 25.4655L23.5394 21.4713L27.3847 17.4253ZM15.1667 17.6784L15.3219 18.6869L15.7054 21.1988L15.459 28.9132L14.2936 22.7159L14.2933 22.652L15.1667 17.6784ZM19.2197 17.6645L20.0955 22.652L20.0952 22.7159L18.9271 28.9289L18.8807 27.3749L18.6985 21.1529L19.2197 17.6645Z" fill="#E27525"/>
    <path d="M23.8823 21.3105L23.752 24.7749L19.6852 28.0464L18.8632 27.4467L19.7845 22.5458L23.8823 21.3105ZM10.5205 21.3109L14.6042 22.5461L15.5254 27.4467L14.7035 28.0464L10.6367 24.7746L10.5205 21.3109Z" fill="#F5841F"/>
    <path d="M9.00244 29.3286L14.205 31.8738L14.1831 30.7867L14.6185 30.3924H19.7678L20.2187 30.7856L20.1854 31.8717L25.3553 29.3349L22.8397 31.4813L19.7978 33.6385H14.5767L11.5369 31.4723L9.00244 29.3286Z" fill="#C0AC9D"/>
    <path d="M19.1012 27.1958L19.8369 27.7322L20.2679 31.2832L19.644 30.7395H14.7445L14.1323 31.2943L14.5495 27.7326L15.2852 27.1958H19.1012Z" fill="#161616"/>
    <path d="M32.6164 0.673828L34.3875 6.15984L33.2814 11.707L34.069 12.3346L33.0033 13.1742L33.8043 13.8128L32.7437 14.8102L33.3949 15.2973L31.6665 17.3811L24.578 15.2504L24.5168 15.2163L19.4088 10.7673L32.6164 0.673828ZM1.77111 0.673828L14.979 10.7673L9.87074 15.2163L9.80946 15.2504L2.72098 17.3811L0.992967 15.2973L1.6435 14.8106L0.583187 13.8128L1.38288 13.1749L0.301021 12.3328L1.11856 11.705L0 6.16019L1.77111 0.673828Z" fill="#763E1A"/>
    <path d="M24.2306 14.7844L31.7413 17.0425L34.1815 24.807H27.7442L23.3084 24.8647L26.5341 18.3729L24.2306 14.7844ZM10.1557 14.7844L7.85155 18.3729L11.0779 24.8647L6.64443 24.807H0.218262L2.64495 17.0425L10.1557 14.7844ZM21.9464 4.9541L19.8453 10.8125L19.3995 18.7262L19.2291 21.2067L19.2156 27.5434H15.1707L15.1575 21.2185L14.9865 18.7241L14.5404 10.8125L12.4399 4.9541H21.9464Z" fill="#F5841F"/>
</svg>
