<svg width="32" height="32" viewBox="0 0 32 32" fill="none" xmlns="http://www.w3.org/2000/svg">
<path d="M28.0046 13.3323V22.6696C28.0046 25.6163 25.6158 28.0051 22.6691 28.0051H9.33018C6.38344 28.0051 3.99463 25.6163 3.99463 22.6696V9.33067C3.99463 6.38393 6.38344 3.99512 9.33018 3.99512H17.3335" stroke="white" stroke-width="1.5" stroke-linecap="round" stroke-linejoin="round"/>
<path d="M3.99463 17.3339L5.72223 15.6063C6.32535 15.0031 7.14335 14.6643 7.9963 14.6643C8.84923 14.6643 9.66723 15.0031 10.2703 15.6063L15.9996 21.3355" stroke="white" stroke-width="1.5" stroke-linecap="round" stroke-linejoin="round"/>
<path d="M9.33447 28.005L17.7315 19.608C18.9875 18.352 21.0237 18.352 22.2796 19.608L27.5341 24.8624" stroke="white" stroke-width="1.5" stroke-linecap="round" stroke-linejoin="round"/>
<path d="M24.0032 3.99512L20.6685 7.32984" stroke="white" stroke-width="1.5" stroke-linecap="round" stroke-linejoin="round"/>
<path d="M27.3377 7.32984L24.0029 3.99512" stroke="white" stroke-width="1.5" stroke-linecap="round" stroke-linejoin="round"/>
<path d="M24.0034 3.99512V10.6646" stroke="white" stroke-width="1.5" stroke-linecap="round" stroke-linejoin="round"/>
</svg>
