<svg width="36" height="22" viewBox="0 0 36 22" fill="none" xmlns="http://www.w3.org/2000/svg">
    <path d="M7.36993 4.29842C13.2408 -1.43281 22.7592 -1.43281 28.6301 4.29842L29.3367 4.98816C29.6301 5.27475 29.6301 5.73933 29.3367 6.02593L26.9196 8.38545C26.7729 8.52874 26.5349 8.52874 26.3881 8.38545L25.4158 7.43629C21.3202 3.43801 14.6798 3.43801 10.5842 7.43629L9.54295 8.45275C9.3962 8.59605 9.15818 8.59605 9.01144 8.45275L6.5944 6.09323C6.3009 5.80663 6.3009 5.34206 6.5944 5.05546L7.36993 4.29842ZM33.6287 9.17822L35.7798 11.2782C36.0734 11.5647 36.0734 12.0293 35.7798 12.3159L26.0802 21.7851C25.7867 22.0716 25.3107 22.0716 25.0171 21.7851L18.1329 15.0646C18.0595 14.9929 17.9406 14.9929 17.8672 15.0646L10.9831 21.7851C10.6896 22.0716 10.2136 22.0716 9.92013 21.7851L0.220158 12.3158C-0.0733859 12.0292 -0.0733859 11.5647 0.220158 11.2781L2.37131 9.17812C2.66484 8.89152 3.14077 8.89152 3.43431 9.17812L10.3187 15.8987C10.3921 15.9704 10.511 15.9704 10.5843 15.8987L17.4684 9.17812C17.7619 8.89152 18.2378 8.89152 18.5313 9.17803L25.4157 15.8987C25.4891 15.9704 25.6081 15.9704 25.6814 15.8987L32.5657 9.17822C32.8592 8.89162 33.3351 8.89162 33.6287 9.17822Z" fill="#3396FF"/>
</svg>
