<svg width="66" height="66" viewBox="0 0 66 66" fill="none" xmlns="http://www.w3.org/2000/svg">
<path d="M0 13.3913C0 5.99549 5.99549 0 13.3913 0H52.6087C60.0045 0 66 5.99549 66 13.3913V52.6087C66 60.0045 60.0045 66 52.6087 66H13.3913C5.99549 66 0 60.0045 0 52.6087V13.3913Z" fill="#FFFBFB"/>
<path d="M37.5387 26.1688L32.7057 40.886V40.8641C32.6174 41.0831 32.4923 41.2656 32.3305 41.4116C32.1834 41.543 31.9995 41.6087 31.7788 41.6087C31.6611 41.6087 31.5434 41.5941 31.4257 41.5649C31.3227 41.5503 31.2123 41.5284 31.0947 41.4992H31.1167C30.2781 41.2364 29.9692 40.7692 30.1898 40.0976L35.2215 24.9205C35.295 24.6869 35.4201 24.4898 35.5966 24.3292C35.7879 24.1685 36.0086 24.0736 36.2587 24.0444C36.5088 24.0006 36.7516 23.9714 36.987 23.9568C37.2224 23.9276 37.4063 23.913 37.5387 23.913C37.6711 23.913 37.855 23.9276 38.0904 23.9568C38.3258 23.9714 38.5685 23.9933 38.8186 24.0225C39.0246 24.0517 39.2232 24.1612 39.4145 24.3511C39.6205 24.5409 39.775 24.7307 39.8779 24.9205C40.7018 27.4317 41.5331 29.9649 42.3717 32.52C43.225 35.0604 44.0636 37.5863 44.8875 40.0976C45.0935 40.7692 44.7845 41.2364 43.9606 41.4992C43.8429 41.5284 43.7326 41.5503 43.6296 41.5649C43.5413 41.5941 43.4383 41.6087 43.3206 41.6087C43.1147 41.6087 42.9234 41.543 42.7468 41.4116C42.585 41.2656 42.4673 41.0831 42.3938 40.8641V40.886L37.5387 26.1688ZM39.1938 36.1555C39.1938 36.6227 39.0246 37.0242 38.6862 37.36C38.3626 37.6812 37.9653 37.8418 37.4945 37.8418C37.0237 37.8418 36.6265 37.6812 36.3028 37.36C35.9792 37.0242 35.8173 36.6227 35.8173 36.1555C35.8173 35.6882 35.9792 35.294 36.3028 34.9728C36.6265 34.637 37.0237 34.4691 37.4945 34.4691C37.9653 34.4691 38.3626 34.637 38.6862 34.9728C39.0246 35.294 39.1938 35.6882 39.1938 36.1555Z" fill="url(#paint0_linear_24_155)"/>
<path d="M53.9711 31.403C54.3536 31.403 54.7509 31.4833 55.1628 31.6439C55.5748 31.8045 55.972 32.0163 56.3545 32.2791H56.3324C56.715 32.5419 57.0092 32.8996 57.2152 33.3522C57.4212 33.8048 57.5242 34.3231 57.5242 34.9071V37.9075C57.5242 39.0901 57.1269 39.9735 56.3324 40.5575C55.9499 40.8349 55.5527 41.0539 55.1407 41.2145C54.7435 41.3605 54.3536 41.4335 53.9711 41.4335H49.1602C48.7776 41.4335 48.3804 41.3605 47.9685 41.2145C47.5712 41.0539 47.1814 40.8349 46.7988 40.5575C46.0044 39.9735 45.6071 39.0901 45.6071 37.9075V36.4621C45.6071 35.7759 46.0411 35.4327 46.9092 35.4327C47.7919 35.4327 48.2333 35.7759 48.2333 36.4621V37.7323C48.2333 38.1119 48.3436 38.455 48.5643 38.7616C48.785 39.0682 49.1675 39.2215 49.7119 39.2215H53.4194C53.9638 39.2215 54.3463 39.0682 54.567 38.7616C54.7876 38.455 54.898 38.1119 54.898 37.7323V35.0823C54.898 34.7173 54.7876 34.3815 54.567 34.0749C54.3463 33.7537 53.9638 33.5931 53.4194 33.5931H49.1602C48.3951 33.5931 47.608 33.3157 46.7988 32.7609C46.0044 32.1477 45.6071 31.2643 45.6071 30.1109V27.5047C45.6071 26.9207 45.7101 26.4097 45.9161 25.9717C46.1221 25.5191 46.4163 25.1541 46.7988 24.8767H46.7768C47.1593 24.6285 47.5565 24.4241 47.9685 24.2635C48.3804 24.1029 48.7776 24.0225 49.1602 24.0225H53.9711C54.3536 24.0225 54.7509 24.1029 55.1628 24.2635C55.5748 24.4241 55.972 24.6285 56.3545 24.8767H56.3324C56.715 25.1541 57.0092 25.5191 57.2152 25.9717C57.4212 26.4097 57.5242 26.9207 57.5242 27.5047V28.7969C57.5242 29.4831 57.0828 29.8262 56.2 29.8262C55.332 29.8262 54.898 29.4831 54.898 28.7969V27.7018C54.898 27.3368 54.7876 27.001 54.567 26.6944C54.3463 26.3878 53.9638 26.2345 53.4194 26.2345H49.7119C49.1675 26.2345 48.785 26.3878 48.5643 26.6944C48.3436 27.001 48.2333 27.3368 48.2333 27.7018V29.9357C48.2333 30.3153 48.3436 30.6584 48.5643 30.965C48.785 31.257 49.1675 31.403 49.7119 31.403H53.9711Z" fill="url(#paint1_linear_24_155)"/>
<path d="M8.26328 25.0307C8.26329 24.0993 8.90003 23.913 9.57441 23.913C10.2488 23.913 10.8855 24.0993 10.8855 25.0307V37.697C10.8855 38.5379 11.3972 39.1872 12.2903 39.1872H16.7856C17.6285 39.1872 18.1904 38.5352 18.1904 37.697V26.9865C18.1904 25.4032 19.6888 23.913 21.6555 23.913H26.5254C27.8365 23.913 28.773 24.565 29.2413 25.0307C29.9617 25.7471 30.1778 26.6252 30.1778 27.6384V31.3638C30.1778 32.4242 29.9402 33.1691 29.1476 33.8785C28.2111 34.7167 27.2746 34.903 25.7762 34.903H23.8095C23.1539 34.903 22.9666 34.2906 22.9666 33.7854C22.9666 33.2801 23.0603 32.52 23.9968 32.52H26.1508C27.4338 32.52 27.7429 31.8295 27.7429 31.0844V27.7247C27.7429 27.2689 27.5479 26.7869 27.1809 26.5139C26.9031 26.3072 26.5914 26.2345 26.2444 26.2345H22.4047C21.4682 26.2345 20.8126 27.0727 20.8126 27.7247V38.0696C20.8126 39.0489 20.5578 39.8774 19.8761 40.5842C19.5749 40.8965 18.3541 41.6087 17.2539 41.6087H11.8221C10.9777 41.6087 10.3598 41.3452 9.66806 40.8636C8.73154 40.2117 8.26328 39.2742 8.26328 38.0696V25.0307Z" fill="url(#paint2_linear_24_155)"/>
<path fill-rule="evenodd" clip-rule="evenodd" d="M52.6087 2.86957H13.3913C7.58031 2.86957 2.86957 7.58031 2.86957 13.3913V52.6087C2.86957 58.4197 7.58031 63.1304 13.3913 63.1304H52.6087C58.4197 63.1304 63.1304 58.4197 63.1304 52.6087V13.3913C63.1304 7.58031 58.4197 2.86957 52.6087 2.86957ZM13.3913 0C5.99549 0 0 5.99549 0 13.3913V52.6087C0 60.0045 5.99549 66 13.3913 66H52.6087C60.0045 66 66 60.0045 66 52.6087V13.3913C66 5.99549 60.0045 0 52.6087 0H13.3913Z" fill="url(#paint3_linear_24_155)"/>
<defs>
<linearGradient id="paint0_linear_24_155" x1="8.36956" y1="20.3261" x2="62.1418" y2="63.9431" gradientUnits="userSpaceOnUse">
<stop stop-color="#8224D5"/>
<stop offset="1" stop-color="#59DEFF"/>
</linearGradient>
<linearGradient id="paint1_linear_24_155" x1="8.36956" y1="20.3261" x2="62.1418" y2="63.9431" gradientUnits="userSpaceOnUse">
<stop stop-color="#8224D5"/>
<stop offset="1" stop-color="#59DEFF"/>
</linearGradient>
<linearGradient id="paint2_linear_24_155" x1="8.36956" y1="20.3261" x2="62.1418" y2="63.9431" gradientUnits="userSpaceOnUse">
<stop stop-color="#8224D5"/>
<stop offset="1" stop-color="#59DEFF"/>
</linearGradient>
<linearGradient id="paint3_linear_24_155" x1="8.36956" y1="20.3261" x2="62.1418" y2="63.9431" gradientUnits="userSpaceOnUse">
<stop stop-color="#8224D5"/>
<stop offset="1" stop-color="#59DEFF"/>
</linearGradient>
</defs>
</svg>
